<svg width="100" height="190" viewBox="0 0 100 190" fill="none" xmlns="http://www.w3.org/2000/svg">
<path d="M62.5113 21.57C71.3795 22.0988 79.7702 25.7654 86.1826 31.9139C92.595 38.0625 96.6107 46.2919 97.5113 55.13C97.6296 56.3898 97.653 57.6567 97.5813 58.92H79.2813C79.3512 58.6859 79.3915 58.4441 79.4013 58.2C79.5213 56.29 80.1813 53.49 77.9113 50.54C77.3036 49.5593 76.4961 48.7177 75.5413 48.07C74.6768 47.6372 73.7769 47.2793 72.8513 47C71.3883 46.418 69.8106 46.1818 68.2413 46.31C67.5713 46.39 66.2413 46.46 66.0313 45.96C66.0313 45.76 65.7713 45.6 65.3413 45.83C64.9113 46.06 63.4013 47 63.0113 45.84C63.0813 45.66 63.1513 45.32 62.6813 45.59C62.2113 45.86 60.4713 47.34 60.0013 46.33C60.0013 46.17 59.7613 45.98 59.3513 46.33C58.9413 46.68 57.8713 48.38 57.5713 48.55C56.7913 48.4 51.3813 46.84 50.0313 46.8C50.5504 46.2009 50.9295 45.4938 51.1413 44.73C51.3316 43.8374 51.5822 42.9587 51.8913 42.1C52.1313 41.41 52.5913 39.92 52.7813 39.33C52.9736 38.6352 53.1107 37.9264 53.1913 37.21C53.2513 36.72 53.4913 35.57 52.9813 35.48C52.4713 35.39 51.1413 35.22 49.2113 36.69C46.8923 38.3082 44.9708 40.4315 43.5913 42.9C43.1313 43.7 42.2713 45.66 41.7613 45.57C40.3513 45.3 31.6213 44 26.2513 49C25.4644 49.1881 24.7096 49.4914 24.0113 49.9C22.5791 50.4011 21.1992 51.0408 19.8913 51.81C18.9661 51.9652 18.1033 52.3776 17.4013 53C17.0013 53.35 16.3013 54.2 16.9613 54.61C17.5834 54.5425 18.1909 54.3771 18.7613 54.12C18.27 54.7497 17.7318 55.3414 17.1513 55.89C17.1513 55.89 16.6613 56.42 17.0813 56.71C17.5013 57 17.6613 57.13 17.6613 57.13C17.7228 57.4393 17.8415 57.7343 18.0113 58C18.2613 58.33 18.9413 58.78 19.1313 59C19.3213 59.22 19.6613 60 19.9113 60.27C20.1613 60.54 21.2413 61.85 21.5813 62.27C22.0373 62.9133 22.458 63.5809 22.8413 64.27C25.4832 69.6224 29.7404 74.0091 35.0113 76.81C34.8628 77.7255 34.9594 78.664 35.2913 79.53C35.5613 78.45 35.6313 78.09 35.8813 78.36C36.1313 78.63 36.5713 78.68 36.8013 79.49C37.0313 80.3 37.2713 81.8 37.8613 81.26C38.4513 80.72 38.7113 80.45 38.7113 80.45C38.7113 80.45 39.1913 80.12 39.2713 80.9C39.4712 82.1464 39.8803 83.35 40.4813 84.46C40.7213 84.77 40.9413 84.66 40.9913 84.37C41.0869 84.0133 41.2038 83.6627 41.3413 83.32C41.3413 83.32 41.5813 83.21 41.7513 83.61C42.0307 84.2735 42.3652 84.9124 42.7513 85.52C42.9813 85.79 43.2013 85.69 43.3313 85.32C43.4613 84.95 43.3313 84.61 43.7313 84.39C44.1313 84.17 44.5113 84.08 44.6713 84.45C44.8313 84.82 45.4013 85.75 45.4713 85.86C45.5413 85.97 45.7113 85.79 45.7613 85.5C45.8113 85.21 46.0613 85.16 46.1813 85.07L46.6513 84.81C46.7366 84.8009 46.8228 84.8105 46.904 84.8382C46.9851 84.8658 47.0593 84.9108 47.1213 84.97C47.3213 85.16 47.6313 85.75 47.7513 85.55C47.8713 85.35 48.2113 84.55 48.7513 84.77C49.1019 84.9 49.4219 85.1008 49.6913 85.36C49.7713 85.5 49.8613 85.36 50.1413 85.36C50.405 85.2272 50.6961 85.1581 50.9913 85.1581C51.2865 85.1581 51.5777 85.2272 51.8413 85.36C51.8625 85.4225 51.8961 85.4801 51.9401 85.5293C51.9841 85.5785 52.0376 85.6183 52.0974 85.6464C52.1572 85.6744 52.222 85.69 52.288 85.6924C52.3539 85.6947 52.4197 85.6837 52.4813 85.66H52.5713C52.9413 85.48 53.4013 85.04 53.8813 85.16L55.0113 85.4C55.0113 85.4 55.3813 86.28 55.5413 85.58C55.6313 85.36 56.0613 85.13 56.7113 85.52C56.7915 85.5985 56.8872 85.6595 56.9922 85.6991C57.0972 85.7387 57.2093 85.756 57.3213 85.75C58.2035 85.8403 59.0492 86.1497 59.7813 86.65C61.9554 87.7983 64.4394 88.2223 66.8713 87.86C68.3573 87.5309 69.8003 87.0309 71.1713 86.37C71.7144 86.0956 72.2243 85.7601 72.6913 85.37C81.3662 88.893 88.6722 95.1221 93.5225 103.131C98.3728 111.14 100.508 120.5 99.6113 129.82C97.6113 149.59 81.6113 164.56 62.4513 167.76V189.76H37.3513V168.17C28.4859 167.633 20.0995 163.964 13.6887 157.817C7.2779 151.67 3.25978 143.445 2.35132 134.61C2.16132 132.61 2.11132 130.82 2.11132 130.82H20.7813C20.6599 131.162 20.5826 131.518 20.5513 131.88C20.4413 133.78 19.7813 136.57 22.0613 139.53C22.6654 140.51 23.4696 141.352 24.4213 142C25.2951 142.409 26.2016 142.743 27.1313 143C28.5916 143.579 30.1661 143.812 31.7313 143.68C32.4013 143.61 33.7313 143.53 33.9313 144.04C33.9313 144.23 34.2113 144.39 34.6413 144.16C35.0713 143.93 36.5713 143.04 36.9413 144.16C36.8813 144.34 36.8213 144.68 37.2913 144.41C37.7613 144.14 39.4913 142.65 39.9613 143.66C39.9613 143.82 40.2013 144.01 40.6013 143.66C40.7762 143.5 40.9337 143.323 41.0713 143.13H49.9213C49.4073 143.735 49.0319 144.445 48.8213 145.21C48.6391 146.104 48.3918 146.983 48.0813 147.84C47.8413 148.53 47.3813 150.02 47.2113 150.61C47.0119 151.3 46.8714 152.006 46.7913 152.72C46.7413 153.22 46.4913 154.36 47.0013 154.46C47.5113 154.56 48.8513 154.71 50.7713 153.25C53.081 151.608 54.9971 149.473 56.3813 147C56.8413 146.19 57.6813 144.23 58.2113 144.33C59.6213 144.55 68.3513 145.89 73.7013 140.84C74.49 140.648 75.2475 140.345 75.9513 139.94C77.3796 139.425 78.7558 138.775 80.0613 138C80.9851 137.837 81.8445 137.418 82.5413 136.79C82.9513 136.44 83.6413 135.6 82.9813 135.17C82.3602 135.254 81.7542 135.426 81.1813 135.68C81.6762 135.081 82.2143 134.52 82.7913 134C82.7913 134 83.2613 133.47 82.8613 133.16C82.6796 133.011 82.4855 132.877 82.2813 132.76C82.2147 132.449 82.0891 132.154 81.9113 131.89C81.6513 131.56 80.9113 131.11 80.7813 130.89C80.5542 130.447 80.2934 130.023 80.0013 129.62C79.7513 129.35 78.6813 128.05 78.3313 127.62C77.8689 126.996 77.4448 126.345 77.0613 125.67C76.2297 123.977 75.2243 122.375 74.0613 120.89C73.2265 117.634 71.4924 114.679 69.0573 112.363C66.6223 110.046 63.5845 108.462 60.2913 107.79C60.0824 106.993 59.7697 106.226 59.3613 105.51C59.1213 105.2 58.9113 105.31 58.8513 105.61C58.7601 105.952 58.6431 106.286 58.5013 106.61C58.5013 106.61 58.2613 106.73 58.1013 106.31C57.8302 105.643 57.4954 105.003 57.1013 104.4C56.8813 104.13 56.6613 104.25 56.5313 104.6C56.4013 104.95 56.4713 105.33 56.1213 105.53C55.7713 105.73 55.3413 105.85 55.1813 105.53C55.0213 105.21 54.4413 104.24 54.3913 104.11C54.3413 103.98 54.1513 104.19 54.0913 104.49C54.0313 104.79 53.8013 104.83 53.6813 104.92L53.2013 105.18C53.1162 105.187 53.0307 105.176 52.9499 105.148C52.8691 105.121 52.7947 105.077 52.7313 105.02C52.5313 104.83 52.2213 104.24 52.1013 104.45C51.9813 104.66 51.6413 105.45 51.1013 105.23C50.7538 105.1 50.4371 104.899 50.1713 104.64C50.0813 104.5 49.9813 104.64 49.7013 104.64C49.4409 104.777 49.1508 104.849 48.8563 104.849C48.5618 104.849 48.2718 104.777 48.0113 104.64C47.9642 104.517 47.8706 104.418 47.7509 104.364C47.6311 104.309 47.4947 104.304 47.3713 104.35H47.2813C46.9013 104.53 46.4513 104.97 45.9613 104.85L44.8213 104.57C44.8213 104.57 44.4413 103.69 44.2813 104.39C44.2013 104.61 43.7813 104.85 43.1113 104.46C42.9475 104.31 42.7332 104.228 42.5113 104.23C41.6286 104.129 40.7823 103.82 40.0413 103.33C37.8681 102.19 35.3889 101.77 32.9613 102.13C31.4758 102.481 30.0312 102.987 28.6513 103.64C28.3607 103.768 28.0856 103.929 27.8313 104.12C13.1113 98.31 1.81132 85.12 0.201324 68.7C-0.875019 57.5922 2.39304 46.4992 9.31967 37.7491C16.2463 28.999 26.293 23.272 37.3513 21.77V0H62.5313" fill="#285931"/>
</svg>
